<?xml version="1.0" encoding="utf-8"?>
<svg xmlns="http://www.w3.org/2000/svg" viewBox="0 0 1024 1024" width="1024px" height="1024px"><defs><style>
        @import url('https://fonts.googleapis.com/css2?family=Anton&amp;display=swap');
        .display-text { 
          font-family: 'Anton', 'Impact', 'Arial Black', sans-serif; 
          font-weight: bold;
          letter-spacing: 2px;
        }
      </style></defs><g transform="matrix(2, 0, 0, 2, 0, 0)" id="object-0"><rect width="512" height="512" rx="115" ry="115" fill="#000000" y="0" x="0" style=""/><g opacity="0.7"><rect x="120" y="236" width="18" height="40" fill="white"/><rect x="148" y="196" width="18" height="80" fill="white"/><rect x="176" y="136" width="18" height="140" fill="white"/><rect x="204" y="176" width="18" height="100" fill="white"/><rect x="232" y="216" width="18" height="60" fill="white"/><rect x="260" y="156" width="18" height="120" fill="white"/><rect x="288" y="116" width="18" height="160" fill="white"/><rect x="316" y="186" width="18" height="90" fill="white"/><rect x="344" y="226" width="18" height="50" fill="white"/></g><g transform="matrix(1, 0, 0, 1, 256, 180)"><rect x="-30" y="-70" width="60" height="100" rx="30" ry="30" fill="#e53e3e"/><path d="M -50 20 Q -50 65 0 65 Q 50 65 50 20" fill="none" stroke="#e53e3e" stroke-width="18" stroke-linecap="round"/></g><g transform="matrix(1, 0, 0, 1, 256, 360)"><defs><style>
        @import url('https://fonts.googleapis.com/css2?family=Anton&amp;display=swap');
        .display-text { 
          font-family: 'Anton', 'Impact', 'Arial Black', sans-serif; 
          font-weight: bold;
          letter-spacing: 2px;
        }
      </style></defs><text x="-120" y="10" fill="white" class="display-text" font-size="95" text-anchor="middle" alignment-baseline="middle" style="white-space: pre;">1</text><circle cx="-52" cy="5" r="50" fill="#e53e3e"/><path d="M -68 -22.5 L -68 32.5 L -26 5 L -68 -22.5 Z" fill="white"/><text x="60" y="10" fill="white" class="display-text" font-size="95" text-anchor="middle" alignment-baseline="middle" style="white-space: pre;">3.8</text></g></g></svg>